<?xml version="1.0" standalone="no"?>
<!DOCTYPE svg PUBLIC "-//W3C//DTD SVG 20010904//EN"
 "http://www.w3.org/TR/2001/REC-SVG-20010904/DTD/svg10.dtd">
<svg version="1.0" xmlns="http://www.w3.org/2000/svg"
 width="658.000000pt" height="313.000000pt" viewBox="0 0 658.000000 313.000000"
 preserveAspectRatio="xMidYMid meet">
<metadata>
Created by potrace 1.16, written by Peter Selinger 2001-2019
</metadata>
<g transform="translate(0.000000,313.000000) scale(0.100000,-0.100000)"
fill="#000000" stroke="none">
<path d="M1497 2623 c-33 -64 -647 -1362 -647 -1367 0 -3 55 -6 123 -6 l123 0
272 575 272 575 -60 122 c-34 67 -62 124 -65 126 -2 2 -10 -9 -18 -25z"/>
<path d="M5110 2340 c0 -137 -4 -230 -9 -230 -6 0 -16 9 -23 19 -27 38 -98 66
-180 69 -204 10 -337 -120 -369 -359 -22 -161 19 -319 105 -405 66 -65 130
-89 226 -82 82 6 141 33 210 95 l50 45 0 -44 c0 -66 20 -88 81 -88 l49 0 0
605 0 605 -70 0 -70 0 0 -230z m-125 -261 c24 -6 62 -27 84 -46 l41 -35 0
-203 0 -203 -45 -45 c-59 -60 -115 -81 -199 -75 -85 5 -130 39 -165 124 -21
50 -25 75 -24 169 0 90 4 121 23 170 48 126 151 178 285 144z"/>
<path d="M2567 2186 c-38 -14 -86 -44 -144 -92 l-33 -27 0 39 c0 62 -22 84
-81 84 l-49 0 0 -415 0 -415 70 0 70 0 0 304 0 304 41 37 c59 53 118 77 190
76 72 0 114 -21 144 -71 19 -33 20 -54 23 -342 l3 -308 75 0 74 0 0 273 c0
351 -12 417 -91 498 -61 62 -198 88 -292 55z"/>
<path d="M3255 2187 c-60 -20 -120 -53 -159 -87 -34 -31 -35 -31 -18 -61 22
-38 57 -47 91 -25 69 45 131 67 191 67 112 1 159 -52 168 -188 l5 -73 -66 0
c-199 0 -380 -78 -428 -184 -35 -77 -14 -176 48 -231 98 -86 297 -70 416 34
40 35 41 35 51 -31 7 -40 20 -48 77 -48 l40 0 -3 318 c-3 302 -4 319 -25 364
-25 56 -74 108 -123 134 -45 23 -207 30 -265 11z m275 -545 l0 -88 -47 -35
c-120 -90 -262 -93 -309 -7 -32 57 -3 133 63 166 33 17 61 25 168 46 11 2 44
4 73 5 l52 1 0 -88z"/>
<path d="M4067 2186 c-43 -16 -99 -52 -138 -90 -32 -30 -39 -25 -39 25 0 51
-21 69 -81 69 l-49 0 0 -415 0 -415 75 0 75 0 0 309 0 310 38 31 c62 51 115
72 183 71 77 0 117 -22 147 -81 21 -43 22 -53 22 -342 l0 -298 76 0 75 0 -3
313 c-4 348 -8 368 -74 445 -62 72 -205 104 -307 68z"/>
<path d="M1583 1987 c3 -9 83 -178 178 -376 l172 -361 124 0 c67 0 123 2 123
3 0 2 -76 165 -170 361 -93 197 -170 362 -170 367 0 5 -21 9 -47 9 -27 0 -86
3 -132 7 -75 5 -84 4 -78 -10z"/>
<path d="M3524 1089 c-69 -25 -71 -141 -5 -169 53 -22 101 16 101 79 0 65 -46
109 -96 90z"/>
</g>
</svg>
