<?xml version="1.0" standalone="no"?>
<!DOCTYPE svg PUBLIC "-//W3C//DTD SVG 20010904//EN"
 "http://www.w3.org/TR/2001/REC-SVG-20010904/DTD/svg10.dtd">
<svg version="1.0" xmlns="http://www.w3.org/2000/svg"
 width="532.000000pt" height="438.000000pt" viewBox="0 0 532.000000 438.000000"
 preserveAspectRatio="xMidYMid meet">
<metadata>
Created by potrace 1.16, written by Peter Selinger 2001-2019
</metadata>
<g transform="translate(0.000000,438.000000) scale(0.100000,-0.100000)"
fill="#000000" stroke="none">
<path d="M1825 3935 c-39 -21 -55 -42 -55 -77 0 -37 20 -76 60 -113 63 -59 60
-32 60 -646 l0 -562 -61 -56 c-56 -53 -60 -59 -57 -95 4 -56 34 -74 143 -87
100 -13 316 -6 361 11 49 19 64 39 64 87 0 37 -6 50 -40 86 -21 24 -44 56 -50
71 -13 36 -13 381 0 407 10 18 25 19 353 19 254 0 346 -3 355 -12 16 -16 17
-390 1 -421 -6 -12 -31 -43 -56 -68 -40 -42 -44 -50 -41 -89 5 -65 31 -80 167
-93 80 -8 145 -8 232 0 145 13 172 27 177 90 3 37 -1 44 -45 83 -26 23 -53 51
-60 63 -16 28 -18 1083 -3 1137 5 20 26 51 46 70 87 85 86 175 -4 200 -20 5
-126 10 -235 10 -209 0 -244 -6 -267 -49 -22 -43 -5 -106 40 -146 53 -47 60
-83 60 -316 0 -154 -3 -218 -12 -227 -9 -9 -101 -12 -355 -12 -328 0 -343 1
-353 19 -12 24 -13 390 -1 445 5 21 23 55 40 75 52 60 66 95 55 138 -16 66
-44 73 -284 73 -165 0 -211 -3 -235 -15z"/>
<path d="M4308 2079 c-25 -14 -22 -31 7 -63 l25 -27 0 -270 0 -270 -27 -25
c-22 -20 -25 -29 -17 -42 9 -13 29 -18 95 -20 99 -3 129 2 129 25 0 9 -10 27
-22 41 -23 23 -23 29 -28 327 -5 289 -6 305 -25 319 -23 18 -111 21 -137 5z"/>
<path d="M3114 2047 c-60 -52 -13 -145 69 -134 53 7 77 31 77 78 0 71 -88 105
-146 56z"/>
<path d="M708 1999 c-23 -13 -23 -35 2 -66 19 -24 20 -41 20 -259 0 -223 -1
-234 -20 -244 -12 -6 -20 -21 -20 -35 0 -29 27 -39 110 -39 109 0 135 24 90
81 -16 20 -20 41 -20 97 0 43 5 77 12 84 13 13 232 18 262 6 13 -5 16 -23 16
-89 0 -69 -3 -85 -20 -100 -25 -22 -26 -62 -2 -68 76 -21 188 -13 206 15 8 14
5 23 -17 46 l-27 28 0 223 0 223 25 30 c29 35 30 41 9 62 -12 12 -37 16 -103
16 -113 0 -134 -19 -91 -81 18 -24 20 -41 18 -121 l-3 -93 -137 -3 -137 -3 -7
26 c-3 14 -5 58 -3 98 3 56 9 79 27 101 26 34 27 40 6 60 -18 19 -167 22 -196
5z"/>
<path d="M3455 1977 c-39 -22 -40 -25 -43 -79 l-3 -57 -37 -3 c-30 -2 -38 -7
-40 -26 -5 -32 15 -53 47 -50 l26 3 5 -172 5 -173 32 -31 c24 -25 42 -33 80
-36 61 -5 133 28 147 70 15 42 -2 51 -57 30 -70 -26 -72 -20 -72 160 l0 152
50 1 c28 0 55 1 61 2 18 3 25 31 14 53 -9 15 -22 19 -70 19 l-60 0 0 80 c0 76
-1 80 -22 80 -13 0 -41 -11 -63 -23z"/>
<path d="M1595 1841 c-69 -17 -116 -55 -151 -121 -14 -26 -19 -56 -19 -120 0
-116 33 -177 120 -223 61 -33 183 -31 250 4 75 38 109 99 114 201 4 96 -15
153 -67 204 -55 53 -158 76 -247 55z m126 -91 c45 -48 65 -211 35 -284 -30
-71 -124 -67 -160 7 -39 83 -44 222 -10 275 32 48 91 49 135 2z"/>
<path d="M2126 1840 c-83 -21 -129 -71 -129 -141 0 -71 45 -112 163 -150 85
-28 110 -44 110 -73 0 -26 -26 -53 -55 -56 -52 -6 -74 3 -124 45 -54 46 -78
54 -99 33 -20 -20 -13 -58 17 -88 86 -87 337 -74 386 20 44 86 1 150 -132 194
-100 33 -133 57 -133 96 0 38 24 60 67 60 27 0 46 -10 86 -45 54 -47 66 -52
98 -35 40 22 12 97 -48 125 -44 21 -151 28 -207 15z"/>
<path d="M2706 1835 c-21 -7 -46 -21 -54 -29 -14 -14 -18 -13 -38 9 -18 20
-33 25 -69 25 -82 0 -106 -27 -60 -70 l25 -23 0 -246 0 -245 -27 -29 -28 -29
25 -20 c21 -17 36 -19 107 -16 105 4 128 21 89 63 -23 25 -26 36 -26 101 0 41
2 74 5 74 3 0 19 -10 35 -22 73 -54 220 -23 274 59 65 97 52 279 -25 353 -58
55 -153 74 -233 45z m108 -80 c35 -37 49 -103 44 -195 -5 -89 -24 -128 -71
-144 -73 -26 -129 54 -135 192 -6 125 22 172 101 172 28 0 44 -7 61 -25z"/>
<path d="M3915 1843 c-119 -26 -178 -90 -127 -136 31 -28 60 -20 116 33 66 62
106 68 131 19 9 -16 15 -46 13 -66 l-3 -36 -70 -14 c-94 -18 -191 -66 -210
-103 -62 -120 73 -227 218 -176 21 8 47 22 58 32 18 16 20 16 45 -10 20 -20
37 -26 68 -26 74 0 115 53 61 78 -24 11 -25 14 -25 115 0 150 -12 205 -54 244
-49 45 -140 64 -221 46z m135 -302 c0 -49 -5 -65 -24 -87 -46 -54 -136 -25
-136 43 0 44 75 96 148 102 8 1 12 -17 12 -58z"/>
<path d="M3082 1828 c-18 -18 -15 -33 13 -66 24 -29 25 -35 25 -169 0 -136 -1
-140 -25 -163 -51 -48 -24 -72 83 -72 43 0 88 3 100 6 29 10 28 37 -3 66 -25
23 -25 25 -25 197 0 208 -2 213 -98 213 -32 0 -63 -5 -70 -12z"/>
<path d="M2527 953 c-4 -3 -7 -53 -7 -110 0 -85 3 -103 15 -103 12 0 15 17 16
88 l0 87 28 -74 c15 -41 31 -76 37 -78 5 -2 21 30 34 69 l25 73 3 -82 c2 -65
6 -83 17 -83 12 0 15 20 15 111 0 99 -2 110 -17 107 -11 -2 -27 -30 -46 -78
-15 -41 -29 -76 -31 -77 -1 -2 -15 33 -30 77 -26 73 -41 92 -59 73z"/>
<path d="M820 845 c0 -13 84 -15 700 -15 616 0 700 2 700 15 0 13 -84 15 -700
15 -616 0 -700 -2 -700 -15z"/>
<path d="M2990 845 c0 -13 84 -15 695 -15 611 0 695 2 695 15 0 13 -84 15
-695 15 -611 0 -695 -2 -695 -15z"/>
</g>
</svg>
