<?xml version="1.0" standalone="no"?>
<!DOCTYPE svg PUBLIC "-//W3C//DTD SVG 20010904//EN"
 "http://www.w3.org/TR/2001/REC-SVG-20010904/DTD/svg10.dtd">
<svg version="1.0" xmlns="http://www.w3.org/2000/svg"
 width="901.000000pt" height="673.000000pt" viewBox="0 0 901.000000 673.000000"
 preserveAspectRatio="xMidYMid meet">
<metadata>
Created by potrace 1.16, written by Peter Selinger 2001-2019
</metadata>
<g transform="translate(0.000000,673.000000) scale(0.100000,-0.100000)"
fill="#000000" stroke="none">
<path d="M3635 5605 c-45 -44 -31 -106 49 -210 32 -42 48 -75 55 -110 9 -46
42 -1039 41 -1234 l0 -83 -55 -50 c-63 -58 -76 -97 -51 -146 8 -16 30 -39 48
-50 78 -47 319 -90 471 -83 41 2 77 42 77 86 0 43 -9 63 -63 133 -35 46 -41
61 -48 130 -13 129 -11 429 4 434 21 8 711 -103 725 -116 14 -14 30 -442 18
-489 -3 -14 -24 -43 -46 -63 -70 -65 -74 -143 -11 -197 58 -48 329 -104 464
-95 83 5 107 24 107 82 0 47 -14 71 -78 138 l-46 47 -7 128 c-15 232 -41 1182
-34 1214 4 17 27 56 52 86 59 72 70 112 46 161 -30 61 -89 83 -318 117 l-197
29 -37 -20 c-35 -19 -36 -20 -36 -79 1 -55 5 -66 52 -138 61 -91 60 -86 69
-403 5 -183 3 -222 -8 -232 -11 -9 -53 -6 -184 13 -486 72 -537 82 -549 99
-15 19 -32 517 -20 557 4 13 26 48 49 78 36 48 41 61 41 107 0 96 -46 122
-280 158 -219 34 -268 34 -300 1z"/>
<path d="M2563 3533 c-20 -8 -15 -52 9 -86 21 -30 23 -46 31 -295 9 -260 9
-264 -12 -286 -11 -12 -21 -35 -21 -50 0 -35 43 -54 144 -63 69 -5 75 -4 86
16 9 19 7 29 -14 66 -23 38 -26 55 -26 135 l0 92 43 -7 c195 -30 233 -38 245
-53 7 -10 12 -47 12 -98 0 -66 -4 -86 -20 -107 -45 -57 -5 -101 106 -113 113
-12 143 14 90 77 -22 26 -24 39 -30 176 -3 81 -8 198 -11 260 -4 107 -3 113
21 149 30 44 26 80 -12 94 -40 15 -156 32 -181 25 -30 -7 -31 -46 -1 -88 18
-25 22 -48 26 -139 4 -104 4 -108 -16 -108 -47 0 -258 33 -269 42 -9 7 -13 44
-13 116 0 88 3 110 21 138 37 60 13 83 -105 104 -64 11 -84 11 -103 3z"/>
<path d="M5085 3195 c-36 -35 -34 -85 6 -130 28 -31 37 -35 79 -35 39 0 52 4
64 22 34 48 10 124 -48 152 -47 22 -73 20 -101 -9z"/>
<path d="M3435 3180 c-49 -24 -92 -87 -101 -148 -10 -68 2 -185 24 -235 27
-61 93 -130 147 -156 59 -28 148 -41 195 -29 146 37 196 251 102 434 -63 124
-250 192 -367 134z m181 -77 c72 -47 111 -336 53 -394 -27 -27 -80 -25 -111 4
-61 56 -100 276 -65 360 24 56 67 67 123 30z"/>
<path d="M4037 3110 c-77 -15 -122 -91 -104 -178 11 -57 64 -108 167 -162 66
-34 130 -80 130 -94 0 -2 -5 -17 -11 -35 -10 -28 -15 -31 -52 -31 -53 1 -75
13 -128 73 -47 54 -75 69 -101 55 -34 -17 -16 -89 34 -134 53 -49 154 -84 241
-84 109 0 157 39 157 131 0 86 -48 137 -196 212 -96 48 -134 127 -79 163 35
23 66 12 112 -38 68 -74 85 -88 109 -88 51 0 50 78 -1 133 -57 61 -183 96
-278 77z"/>
<path d="M5448 3064 c-40 -17 -48 -34 -48 -105 l0 -46 -37 1 c-34 1 -38 -2
-41 -26 -5 -41 13 -66 51 -70 l32 -3 7 -165 c10 -218 14 -244 45 -280 54 -65
152 -84 212 -41 53 38 56 108 3 97 -98 -20 -90 -22 -101 20 -5 22 -11 109 -12
194 l-2 155 29 -4 c73 -11 99 -7 102 16 6 44 -14 62 -78 69 l-60 7 0 46 c0 25
-3 70 -6 99 -6 48 -9 52 -33 51 -14 0 -42 -7 -63 -15z"/>
<path d="M4428 3044 c-15 -14 -8 -50 16 -82 22 -31 24 -44 30 -220 13 -378 13
-383 -12 -400 -24 -16 -29 -54 -9 -70 23 -20 153 -40 215 -33 19 2 14 43 -9
67 -16 17 -23 44 -31 109 -5 48 -7 90 -4 93 4 3 19 -6 34 -21 36 -35 91 -57
149 -59 135 -5 208 118 183 313 -20 165 -113 265 -257 277 -51 4 -68 1 -99
-17 l-37 -22 -26 32 c-23 27 -35 33 -82 36 -30 3 -57 1 -61 -3z m323 -117 c53
-35 80 -99 86 -210 8 -139 -19 -207 -82 -207 -67 0 -113 78 -136 230 -9 67 -9
86 6 129 20 60 29 69 86 80 3 0 21 -9 40 -22z"/>
<path d="M6331 3036 c-14 -16 -6 -43 23 -74 18 -21 21 -41 27 -185 4 -89 9
-233 11 -319 3 -151 2 -158 -20 -180 -27 -29 -28 -50 -4 -71 24 -21 108 -39
168 -35 42 3 49 6 52 26 2 13 -7 34 -21 51 -27 32 -28 50 -43 518 -8 232 -13
251 -81 271 -53 16 -98 15 -112 -2z"/>
<path d="M5062 2948 c-18 -18 -15 -38 16 -77 27 -35 27 -39 31 -204 l3 -169
-27 -28 c-22 -23 -25 -31 -16 -49 19 -35 69 -50 174 -53 74 -1 86 21 42 74
-19 23 -25 41 -26 81 0 29 -4 120 -7 204 -8 176 -17 197 -92 219 -56 17 -83
17 -98 2z"/>
<path d="M5861 2816 c-70 -25 -94 -97 -45 -135 47 -37 87 -23 134 46 24 35 62
39 95 10 24 -20 29 -33 33 -84 l4 -60 -78 -6 c-127 -10 -194 -42 -220 -104
-16 -37 -11 -89 12 -135 45 -89 215 -132 285 -72 21 19 37 17 43 -4 10 -29 80
-64 113 -56 33 8 63 32 63 50 0 7 -12 21 -27 32 -31 23 -41 75 -42 220 -1 133
-15 177 -72 233 -33 34 -62 52 -100 63 -62 19 -150 20 -198 2z m229 -371 c0
-57 -3 -69 -26 -92 -20 -20 -32 -24 -57 -19 -42 8 -77 48 -77 89 1 57 39 84
123 86 l37 1 0 -65z"/>
<path d="M2730 2155 c0 -8 2 -15 5 -15 14 0 1442 -221 1453 -225 7 -2 12 4 12
15 0 11 -2 20 -4 20 -3 0 -328 50 -723 110 -395 61 -723 110 -730 110 -7 0
-13 -7 -13 -15z"/>
<path d="M4287 2043 c-3 -5 -2 -63 1 -130 4 -95 8 -123 18 -123 10 0 14 15 14
55 l0 55 34 0 c55 0 66 -8 66 -49 0 -51 10 -81 27 -81 12 0 13 18 8 118 -7
129 -9 142 -25 142 -6 0 -10 -24 -10 -55 l0 -55 -47 7 c-27 3 -50 7 -52 9 -2
2 -6 29 -9 59 -4 50 -13 68 -25 48z"/>
<path d="M4513 1928 c4 -46 7 -104 7 -130 0 -37 4 -48 15 -48 14 0 15 14 10
103 l-5 102 33 -93 c18 -52 37 -93 42 -93 5 0 21 32 35 73 l25 73 3 -93 c2
-81 5 -93 20 -90 15 3 16 17 13 123 -3 128 -5 135 -26 135 -9 0 -24 -32 -41
-87 -21 -66 -29 -82 -35 -67 -5 10 -20 54 -35 97 -21 62 -31 77 -47 77 -19 0
-20 -4 -14 -82z"/>
<path d="M4788 1959 c-29 -17 -24 -77 10 -105 15 -13 42 -36 61 -52 27 -23 32
-33 26 -51 -6 -20 -12 -23 -42 -18 -20 4 -43 13 -53 22 -13 11 -20 13 -25 5
-4 -6 3 -20 16 -31 45 -39 105 -38 128 2 22 39 1 81 -60 120 -37 23 -49 37
-49 55 0 33 27 41 63 20 33 -18 41 -17 32 6 -12 31 -74 47 -107 27z"/>
<path d="M5000 1805 c0 -8 4 -15 8 -15 4 0 329 -49 722 -110 393 -60 720 -110
727 -110 28 0 12 29 -19 35 -105 18 -1406 215 -1420 215 -10 0 -18 -7 -18 -15z"/>
</g>
</svg>
