<?xml version="1.0" standalone="no"?>
<!DOCTYPE svg PUBLIC "-//W3C//DTD SVG 20010904//EN"
 "http://www.w3.org/TR/2001/REC-SVG-20010904/DTD/svg10.dtd">
<svg version="1.0" xmlns="http://www.w3.org/2000/svg"
 width="434.000000pt" height="418.000000pt" viewBox="0 0 434.000000 418.000000"
 preserveAspectRatio="xMidYMid meet">
<metadata>
Created by potrace 1.16, written by Peter Selinger 2001-2019
</metadata>
<g transform="translate(0.000000,418.000000) scale(0.100000,-0.100000)"
fill="#000000" stroke="none">
<path d="M0 2090 l0 -2090 2170 0 2170 0 0 2090 0 2090 -2170 0 -2170 0 0
-2090z m1020 561 c77 -134 140 -246 140 -250 0 -4 -54 -14 -119 -24 -266 -38
-484 -133 -603 -261 -21 -22 -39 -38 -41 -35 -6 7 466 820 475 817 4 -2 71
-113 148 -247z m767 -56 l102 -230 3 230 3 230 78 3 77 3 0 -421 0 -420 -88 0
-89 0 -86 193 c-47 105 -92 208 -100 227 -14 32 -15 19 -16 -192 l-1 -228 -85
0 -85 0 0 413 c0 228 3 417 7 421 4 4 45 5 92 4 l86 -3 102 -230z m829 -175
c57 -223 104 -411 104 -417 0 -9 -22 -13 -79 -13 -67 0 -80 3 -84 18 -3 9 -11
41 -18 70 l-13 52 -98 0 c-70 0 -100 -4 -103 -12 -2 -7 -11 -39 -20 -70 l-16
-58 -80 0 c-72 0 -80 2 -75 18 2 9 50 188 105 397 56 209 106 390 111 403 9
21 15 23 87 20 l76 -3 103 -405z m461 175 l102 -230 3 230 3 230 78 3 77 3 0
-421 0 -421 -91 3 -91 3 -27 65 c-16 36 -39 90 -53 120 -14 30 -45 100 -69
155 l-44 100 -3 -223 -2 -222 -85 0 -85 0 0 413 c0 228 3 417 7 421 4 4 45 5
92 4 l85 -3 103 -230z m795 168 l66 -68 -1 -291 -2 -291 -62 -61 -62 -62 -195
0 -196 0 0 420 0 420 193 0 193 0 66 -67z m-2660 -559 l68 -7 80 -138 c44 -76
80 -140 80 -143 0 -4 -257 -6 -570 -6 -497 0 -570 2 -563 15 17 30 151 127
228 165 189 92 447 135 677 114z m673 -438 c32 -48 19 -122 -23 -133 -34 -9
-52 -5 -74 14 -26 23 -24 97 2 123 28 28 76 26 95 -4z m-325 -58 c0 -10 -123
-13 -580 -13 -467 -1 -580 2 -580 12 0 10 114 13 580 13 457 0 580 -3 580 -12z
m2270 0 c0 -10 -117 -13 -553 -12 -633 1 -607 1 -607 14 0 7 200 10 580 10
457 0 580 -3 580 -12z"/>
<path d="M3580 2410 l0 -250 65 -1 c36 -1 72 -1 80 -1 47 0 45 -13 45 252 l0
250 -95 0 -95 0 0 -250z"/>
</g>
</svg>
